<svg width="150px" height="150px" viewBox="-60 -50 255 260" version="1.1" xmlns="http://www.w3.org/2000/svg" xmlns:xlink="http://www.w3.org/1999/xlink">
    <!-- Generator: Sketch 51.3 (57544) - http://www.bohemiancoding.com/sketch -->
    <desc>Created with Sketch.</desc>
    <defs></defs>
    <g id="Page-1" stroke="none" stroke-width="1" fill="none" fill-rule="evenodd">
        <g id="laptop-globe" fill-rule="nonzero">
            <g id="XMLID_780_" transform="translate(0.000000, 55.000000)" fill="#6C96C2">
                <path d="M21.4199438,72.3879269 L105.113764,72.3879269 C111.922753,72.3879269 117.59691,66.8954578 117.59691,59.9946632 L117.59691,12.3932638 C117.59691,5.63330171 112.064607,0 105.113764,0 L21.4199438,0 C14.6109551,0 8.93679775,5.49246917 8.93679775,12.3932638 L8.93679775,59.9946632 C8.93679775,66.8954578 14.6109551,72.3879269 21.4199438,72.3879269 Z M14.752809,12.3932638 C14.752809,8.73161765 17.7317416,5.77413425 21.4199438,5.77413425 L105.113764,5.77413425 C108.801966,5.77413425 111.780899,8.73161765 111.780899,12.3932638 L111.780899,59.9946632 C111.780899,63.6563093 108.801966,66.6137927 105.113764,66.6137927 L21.4199438,66.6137927 C17.7317416,66.6137927 14.752809,63.6563093 14.752809,59.9946632 L14.752809,12.3932638 Z" id="XMLID_816_"></path>
                <path d="M117.455056,75.6270754 L9.22050562,75.6270754 C4.53932584,75.6270754 0.709269663,79.4295541 0.709269663,84.077028 L0.709269663,86.0486836 C0.709269663,90.6961575 4.53932584,94.4986361 9.22050562,94.4986361 L117.59691,94.4986361 C122.27809,94.4986361 126.108146,90.6961575 126.108146,86.0486836 L126.108146,84.077028 C125.966292,79.4295541 122.136236,75.6270754 117.455056,75.6270754 Z M120.292135,86.0486836 C120.292135,87.5978416 119.015449,88.7245019 117.59691,88.7245019 L9.22050562,88.7245019 C7.66011236,88.7245019 6.5252809,87.457009 6.5252809,86.0486836 L6.5252809,84.077028 C6.5252809,82.52787 7.80196629,81.4012097 9.22050562,81.4012097 L117.59691,81.4012097 C119.157303,81.4012097 120.292135,82.6687026 120.292135,84.077028 L120.292135,86.0486836 Z" id="XMLID_781_"></path>
            </g>
            <g id="XMLID_662_" opacity="0.3" transform="translate(43.750000, 0.000000)" fill="#585763">
                <path d="M52.8416667,0 C23.6583333,0 0,23.625 0,52.59375 C0,53.4375 0,54.140625 0,54.84375 L61.2,54.84375 C62.475,54.84375 63.75,54.984375 64.8833333,55.40625 L75.65,55.40625 C75.5083333,61.171875 74.8,66.65625 73.6666667,71.71875 L73.6666667,89.015625 C74.8,86.90625 75.7916667,84.65625 76.6416667,82.265625 C81.4583333,81.703125 86.4166667,80.859375 91.2333333,79.875 C86.7,86.0625 80.6083333,91.125 73.6666667,94.5 L73.6666667,100.828125 C92.65,92.8125 105.966667,74.109375 105.966667,52.453125 C105.825,23.625 82.1666667,0 52.8416667,0 Z M24.3666667,49.78125 L5.80833333,49.78125 C6.23333333,43.453125 7.79166667,37.40625 10.4833333,32.0625 C16.0083333,30.796875 21.675,29.671875 27.2,28.96875 C25.6416667,35.15625 24.65,42.1875 24.3666667,49.78125 Z M14.7333333,25.3125 C20.2583333,17.71875 28.1916667,11.671875 37.2583333,8.578125 C34.1416667,12.375 31.45,17.296875 29.325,22.921875 C24.3666667,23.484375 19.55,24.1875 14.7333333,25.3125 Z M50.0083333,49.78125 L30.175,49.78125 C30.4583333,41.90625 31.5916667,34.59375 33.575,28.125 C38.9583333,27.5625 44.4833333,27.28125 50.0083333,27.140625 L50.0083333,49.78125 Z M50.0083333,21.375 C45.1916667,21.515625 40.5166667,21.65625 35.7,22.078125 C39.2416667,13.640625 44.3416667,7.734375 50.0083333,6.1875 L50.0083333,21.375 Z M55.8166667,6.1875 C61.4833333,7.734375 66.4416667,13.640625 70.125,22.078125 C65.45,21.65625 60.6333333,21.375 55.8166667,21.375 L55.8166667,6.1875 Z M55.8166667,49.78125 L55.8166667,27.140625 C61.3416667,27.28125 66.725,27.5625 72.25,28.125 C74.2333333,34.59375 75.5083333,41.90625 75.65,49.78125 L55.8166667,49.78125 Z M76.6416667,22.78125 C74.5166667,17.015625 71.825,12.09375 68.7083333,8.4375 C77.775,11.671875 85.7083333,17.578125 91.2333333,25.171875 C86.275,24.1875 81.4583333,23.484375 76.6416667,22.78125 Z M95.2,32.0625 C97.8916667,37.40625 99.5916667,43.453125 99.875,49.78125 L81.3166667,49.78125 C81.175,42.328125 80.0416667,35.15625 78.3416667,28.96875 C84.15,29.671875 89.675,30.65625 95.2,32.0625 Z M95.2,73.265625 C89.675,74.53125 84.0083333,75.65625 78.4833333,76.359375 C80.1833333,70.03125 81.175,63 81.4583333,55.546875 L100.016667,55.546875 C99.5916667,61.734375 97.8916667,67.78125 95.2,73.265625 Z" id="XMLID_663_"></path>
            </g>
        </g>
    </g>
</svg>