<svg width="150px" height="150px" viewBox="0 0 150 150" version="1.1" xmlns="http://www.w3.org/2000/svg" xmlns:xlink="http://www.w3.org/1999/xlink">
    <!-- Generator: Sketch 51.3 (57544) - http://www.bohemiancoding.com/sketch -->
    <desc>Created with Sketch.</desc>
    <defs></defs>
    <g id="Page-1" stroke="none" stroke-width="1" fill="none" fill-rule="evenodd">
        <g id="mouse-globe" fill-rule="nonzero">
            <path d="M141.754967,101.625889 L128.112583,88.1465149 C117.119205,77.284495 99.2384106,77.284495 88.2450331,88.1465149 C77.2516556,99.0085349 77.2516556,116.675676 88.2450331,127.537696 L101.754967,140.886202 C107.18543,146.382646 114.470199,149 121.754967,149 C129.039735,149 136.192053,146.251778 141.754967,140.886202 C152.748344,130.15505 152.748344,112.487909 141.754967,101.625889 Z M108.245033,85.6600284 C113.145695,85.6600284 117.913907,87.230441 121.887417,90.2403983 L108.245033,103.85064 L94.602649,90.371266 C98.5761589,87.230441 103.344371,85.6600284 108.245033,85.6600284 Z M90.4966887,94.2972973 L104.139073,107.776671 L90.4966887,121.256046 C84.2715232,113.403983 84.2715232,102.280228 90.4966887,94.2972973 Z M137.649007,136.960171 C128.907285,145.59744 114.602649,145.59744 105.860927,136.960171 L94.3377483,125.57468 L126.125828,94.1664296 L137.649007,105.55192 C146.390728,114.189189 146.390728,128.322902 137.649007,136.960171 Z" id="XMLID_1509_" fill="#00EFB7"></path>
            <g id="XMLID_977_" opacity="0.3" fill="#585763">
                <path d="M101.578947,141.315789 L99.4736842,139.210526 C97.5,140 95.3947368,140.657895 93.2894737,141.184211 C94.6052632,139.868421 95.9210526,138.421053 97.1052632,136.842105 L92.8947368,132.631579 C88.4210526,138.552632 83.2894737,142.368421 77.7631579,143.289474 L77.7631579,118.552632 C79.0789474,118.552632 80.5263158,118.552632 81.8421053,118.421053 C81.0526316,116.578947 80.5263158,114.736842 80.2631579,112.763158 C79.4736842,112.763158 78.5526316,112.763158 77.7631579,112.763158 L77.7631579,77.6315789 L108.684211,77.6315789 C108.684211,78.2894737 108.684211,79.0789474 108.552632,79.7368421 C110.526316,79.7368421 112.368421,80 114.210526,80.5263158 C114.210526,79.6052632 114.342105,78.6842105 114.342105,77.7631579 L143.421053,77.7631579 C143.157895,85.3947368 141.578947,92.6315789 138.947368,99.3421053 L141.052632,101.447368 C141.842105,102.236842 142.631579,103.026316 143.289474,103.947368 C147.105263,95 149.210526,85.1315789 149.210526,74.8684211 C149.210526,33.9473684 115.921053,0.526315789 74.8684211,0.526315789 C33.8157895,0.526315789 0.657894737,34.0789474 0.657894737,75.1315789 C0.657894737,116.184211 33.9473684,149.473684 75,149.473684 C85.2631579,149.473684 95.1315789,147.368421 104.078947,143.552632 C103.157895,142.763158 102.368421,142.105263 101.578947,141.315789 Z M135.921053,43.5526316 C140.394737,52.2368421 143.157895,61.9736842 143.552632,72.2368421 L114.473684,72.2368421 C114.210526,60.3947368 112.631579,49.2105263 109.868421,39.4736842 C118.552632,40.6578947 127.236842,42.2368421 135.789474,44.3421053 L135.921053,43.5526316 Z M132.368421,37.6315789 C124.210526,35.7894737 116.052632,34.4736842 107.763158,33.4210526 C104.078947,23.0263158 99.0789474,14.7368421 93.1578947,8.94736842 C109.605263,13.5526316 123.421053,23.9473684 132.368421,37.6315789 Z M77.8947368,6.84210526 C87.2368421,8.55263158 95.6578947,18.4210526 101.447368,32.7631579 C93.6842105,31.9736842 85.7894737,31.5789474 77.8947368,31.4473684 L77.8947368,6.84210526 Z M77.8947368,37.2368421 C86.4473684,37.3684211 95,37.8947368 103.552632,38.8157895 C106.710526,48.6842105 108.552632,60.1315789 108.815789,72.3684211 L77.8947368,72.3684211 L77.8947368,37.2368421 Z M56.7105263,8.94736842 C50.7894737,14.6052632 45.7894737,23.0263158 42.1052632,33.4210526 C33.8157895,34.4736842 25.6578947,35.9210526 17.5,37.6315789 C26.5789474,23.9473684 40.3947368,13.5526316 56.7105263,8.94736842 Z M14.0789474,43.5526316 L14.2105263,44.2105263 C22.7631579,42.1052632 31.4473684,40.5263158 40.1315789,39.3421053 C37.3684211,49.0789474 35.6578947,60.1315789 35.5263158,72.1052632 L6.44736842,72.1052632 C6.84210526,61.9736842 9.60526316,52.2368421 14.0789474,43.5526316 Z M14.0789474,106.578947 C9.60526316,97.8947368 6.84210526,88.1578947 6.44736842,77.8947368 L35.5263158,77.8947368 C35.7894737,89.7368421 37.3684211,100.921053 40.1315789,110.657895 C31.4473684,109.473684 22.7631579,107.894737 14.2105263,105.789474 L14.0789474,106.578947 Z M17.5,112.5 C25.6578947,114.342105 33.8157895,115.657895 42.1052632,116.710526 C45.7894737,127.105263 50.7894737,135.394737 56.7105263,141.184211 C40.3947368,136.710526 26.5789474,126.315789 17.5,112.5 Z M72.1052632,143.421053 C62.7631579,141.710526 54.3421053,131.842105 48.5526316,117.5 C56.3157895,118.289474 64.2105263,118.684211 72.1052632,118.815789 L72.1052632,143.421053 Z M72.1052632,113.026316 C63.5526316,112.894737 55,112.368421 46.4473684,111.447368 C43.2894737,101.578947 41.4473684,90.1315789 41.1842105,77.8947368 L72.1052632,77.8947368 L72.1052632,113.026316 Z M72.1052632,72.2368421 L41.1842105,72.2368421 C41.4473684,60 43.4210526,48.5526316 46.4473684,38.6842105 C55,37.7631579 63.5526316,37.2368421 72.1052632,37.1052632 L72.1052632,72.2368421 Z M72.1052632,31.4473684 C64.2105263,31.5789474 56.4473684,31.9736842 48.6842105,32.7631579 C54.3421053,18.2894737 62.7631579,8.42105263 72.1052632,6.84210526 L72.1052632,31.4473684 Z" id="XMLID_981_"></path>
            </g>
        </g>
    </g>
</svg>