<svg width="150px" height="150px" viewBox="-34 -25 150 150" version="1.1" xmlns="http://www.w3.org/2000/svg" xmlns:xlink="http://www.w3.org/1999/xlink">
    <!-- Generator: Sketch 51.3 (57544) - http://www.bohemiancoding.com/sketch -->
    <desc>Created with Sketch.</desc>
    <defs></defs>
    <g id="Page-1" stroke="none" stroke-width="1" fill="none" fill-rule="evenodd">
        <g id="plug-cloud2" fill-rule="nonzero">
            <path d="M57.1,42.9 L57.1,33.9 L52.9,33.9 L52.9,42.8 L47.8,42.8 L47.8,33.9 L43.6,33.9 L43.6,42.8 L38.5,42.8 L38.5,33.9 L34.3,33.9 L34.3,42.8 L29.2,42.8 L29.2,33.9 L25,33.9 L25,42.9 C21.8,43.3 19.4,46 19.4,49.2 L19.4,62.5 C19.4,68.4 24.2,73.1 30,73.1 L39,73.1 L39,107.1 L43.2,107.1 L43.2,73.1 L52.2,73.1 C58.1,73.1 62.8,68.3 62.8,62.5 L62.8,49.2 C62.8,45.9 60.3,43.2 57.1,42.9 Z M58.5,62.5 C58.5,66 55.6,68.9 52.1,68.9 L29.8,68.9 C26.3,68.9 23.4,66 23.4,62.5 L23.4,49.2 C23.4,48 24.4,47.1 25.5,47.1 L56.3,47.1 C57.5,47.1 58.4,48.1 58.4,49.2 L58.5,62.5 Z" id="XMLID_2288_" fill="#585763" opacity="0.3"></path>
            <g id="XMLID_2286_" fill="#6C96C2">
                <path d="M72.8,26.9 C72.8,19.5 66.9,13.5 59.6,13.3 C56.6,5.8 49.3,0.7 41.1,0.7 C32.9,0.7 25.6,5.8 22.6,13.3 C15.3,13.5 9.4,19.5 9.4,26.8 C4,28.7 0.3,33.8 0.3,39.6 C0.3,47.1 6.4,53.1 13.8,53.1 L19.3,53.1 L19.3,49.1 C19.3,49 19.3,49 19.3,48.9 L13.8,48.9 C8.7,48.9 4.5,44.7 4.5,39.6 C4.5,35.2 7.7,31.3 12,30.5 C13.1,30.3 13.9,29.2 13.7,28.1 C13.6,27.6 13.6,27.2 13.6,26.8 C13.6,21.7 17.8,17.5 22.9,17.5 C23.2,17.5 23.5,17.5 23.9,17.6 C24.9,17.7 25.9,17.1 26.2,16.1 C28,9.6 34.2,5 41,5 C47.8,5 54,9.6 55.9,16.1 C56.2,17.1 57.1,17.7 58.2,17.6 C58.5,17.6 58.8,17.5 59.2,17.5 C64.3,17.5 68.5,21.7 68.5,26.8 C68.5,27.2 68.5,27.6 68.4,28.1 C68.2,29.2 69,30.3 70.1,30.5 C74.4,31.4 77.6,35.2 77.6,39.6 C77.6,44.7 73.4,48.9 68.3,48.9 L62.8,48.9 C62.8,49 62.8,49 62.8,49.1 L62.8,53.1 L68.3,53.1 C75.8,53.1 81.8,47 81.8,39.6 C81.8,33.9 78.1,28.8 72.8,26.9 Z" id="XMLID_2287_"></path>
            </g>
        </g>
    </g>
</svg>