<svg id="Layer_1" data-name="Layer 1" xmlns="http://www.w3.org/2000/svg" width="80px" height="80px" viewBox="0 0 512 512"><defs><style>.cls-1{fill:#141f38;}</style></defs><title>saturn_style_2</title><path class="cls-1" d="M473.14,242.86c35.89-47.8,49-93.68,30.57-125.53C488.84,91.5,455.65,79,412,79a270.51,270.51,0,0,0-27.24,1.47c.18.13.33.28.5.4A216.85,216.85,0,0,0,255.65,38.12C135.32,38.12,37.77,135.67,37.77,256c0,7.38.38,14.66,1.09,21.85C3,325.66-10.1,371.54,8.29,403.39c14.87,25.82,48.06,38.32,91.7,38.32a276.08,276.08,0,0,0,37.36-2.7l.11,0a216.77,216.77,0,0,0,118.19,34.89C376,473.88,473.52,376.33,473.52,256c0-4.39-.16-8.75-.42-13.08ZM412,104.32v0l-.29-.3ZM100,416.08c-35.3,0-60-9-69.52-25.51-10-17.3-4.15-45,15.14-76.61a217.75,217.75,0,0,0,62.08,101.92Q103.74,416.08,100,416.08ZM63.4,256c0-106,86.24-192.24,192.25-192.24,98.78,0,180.37,74.9,191,170.88-30.71,38.39-78.2,79.81-139.13,115-55.22,31.92-113.63,53.9-164,62.42A192.1,192.1,0,0,1,63.4,256ZM255.65,448.24a191.17,191.17,0,0,1-78.82-17c44.94-11.13,94.41-31,143.54-59.42,50.92-29.39,94.18-63.61,126.68-98.17C438.08,371.43,355.69,448.24,255.65,448.24ZM467.47,205a217.51,217.51,0,0,0-55.18-100.4h0c17.56,0,32.42,2.25,44.15,6.6s20.31,10.7,25.05,18.91c9.81,17,4.43,43.89-14,74.84Z"/></svg>