<svg version="1.1" viewBox="0 0 850.360000 760.360000" xmlns="http://www.w3.org/2000/svg" xmlns:xlink="http://www.w3.org/1999/xlink" overflow="hidden"><path d=" M 9.600000 976.299988 L 9.600000 815.700012 L 30.900000 815.700012 L 30.900000 957.400024 L 110.000000 957.400024 L 110.000000 976.400024 L 9.600000 976.400024 Z M 152.500000 976.299988 L 152.500000 815.700012 L 173.800003 815.700012 L 173.800003 976.400024 L 152.500000 976.400024 Z M 298.700012 913.299988 L 298.700012 894.400024 L 366.799988 894.299988 L 366.799988 954.000000 C 356.399994 962.299988 345.600006 968.599976 334.500000 972.799988 C 323.399994 977.000000 312.000000 979.099976 300.299988 979.099976 C 284.500000 979.099976 270.200012 975.700012 257.299988 969.000000 C 244.399994 962.200012 234.699997 952.500000 228.100006 939.700012 C 221.500000 926.900024 218.199997 912.599976 218.199997 896.799988 C 218.199997 881.200012 221.500000 866.599976 228.000000 853.000000 C 234.500000 839.400024 243.899994 829.400024 256.200012 822.799988 C 268.500000 816.200012 282.600006 812.900024 298.600006 812.900024 C 310.200012 812.900024 320.700012 814.799988 330.100006 818.500000 C 339.500000 822.299988 346.899994 827.500000 352.200012 834.200012 C 357.500000 840.900024 361.600006 849.700012 364.399994 860.500000 L 345.200012 865.799988 C 342.799988 857.599976 339.799988 851.200012 336.200012 846.500000 C 332.600006 841.799988 327.500000 838.099976 320.899994 835.299988 C 314.299988 832.500000 306.899994 831.099976 298.799988 831.099976 C 289.100006 831.099976 280.700012 832.599976 273.600006 835.500000 C 266.500000 838.500000 260.799988 842.400024 256.399994 847.200012 C 252.100006 852.000000 248.699997 857.299988 246.300003 863.099976 C 242.199997 873.000000 240.199997 883.799988 240.199997 895.400024 C 240.199997 909.700012 242.699997 921.700012 247.600006 931.400024 C 252.500000 941.000000 259.700012 948.200012 269.100006 952.900024 C 278.500000 957.599976 288.500000 959.900024 299.100006 959.900024 C 308.299988 959.900024 317.299988 958.099976 326.100006 954.599976 C 334.899994 951.099976 341.500000 947.299988 346.000000 943.299988 L 346.000000 913.400024 L 298.700012 913.400024 Z M 392.000000 976.299988 L 453.700012 815.599976 L 476.600006 815.599976 L 542.400024 976.299988 L 518.200012 976.299988 L 499.500000 927.599976 L 432.299988 927.599976 L 414.700012 976.299988 L 392.000000 976.299988 Z M 438.399994 910.400024 L 492.899994 910.400024 L 476.100006 865.900024 C 471.000000 852.400024 467.200012 841.299988 464.700012 832.599976 C 462.700012 842.900024 459.799988 853.099976 456.000000 863.299988 L 438.399994 910.400024 Z M 613.599976 976.299988 L 613.599976 834.599976 L 560.700012 834.599976 L 560.700012 815.599976 L 688.000000 815.599976 L 688.000000 834.599976 L 634.799988 834.599976 L 634.799988 976.299988 L 613.599976 976.299988 Z M 716.099976 898.099976 C 716.099976 871.400024 723.299988 850.599976 737.599976 835.500000 C 751.900024 820.400024 770.400024 812.900024 793.099976 812.900024 C 807.900024 812.900024 821.299988 816.400024 833.200012 823.500000 C 845.099976 830.599976 854.200012 840.500000 860.400024 853.099976 C 866.599976 865.799988 869.799988 880.200012 869.799988 896.200012 C 869.799988 912.500000 866.500000 927.099976 859.900024 939.900024 C 853.299988 952.799988 844.000000 962.500000 832.000000 969.099976 C 819.900024 975.700012 806.900024 979.000000 793.000000 979.000000 C 777.900024 979.000000 764.400024 975.299988 752.400024 968.000000 C 740.500000 960.700012 731.500000 950.700012 725.299988 938.099976 C 719.200012 925.599976 716.099976 912.200012 716.099976 898.099976 Z M 738.000000 898.400024 C 738.000000 917.799988 743.200012 933.000000 753.599976 944.200012 C 764.000000 955.299988 777.099976 960.900024 792.799988 960.900024 C 808.799988 960.900024 822.000000 955.299988 832.299988 944.000000 C 842.599976 932.700012 847.799988 916.799988 847.799988 896.099976 C 847.799988 883.000000 845.599976 871.599976 841.200012 861.799988 C 836.799988 852.000000 830.299988 844.500000 821.799988 839.099976 C 813.299988 833.700012 803.700012 831.000000 793.099976 831.000000 C 778.000000 831.000000 765.099976 836.200012 754.200012 846.500000 C 743.500000 857.000000 738.000000 874.200012 738.000000 898.400024 Z" fill="#7BB642"/><path d=" M 437.200012 943.500000 L 501.200012 944.500000" fill="#7BB642"/><circle cx="176.500000" cy="354.700000" r="21.400000" fill="#FFFFFF"/><circle cx="557.100000" cy="491.600000" r="24.000000" fill="#FFFFFF"/><circle cx="436.400000" cy="615.000000" r="21.400000" fill="#FFFFFF"/><circle cx="557.100000" cy="491.600000" r="21.400000" fill="#FFFFFF"/><path d=" M 648.989990 493.290009 L 429.932007 712.354980 L 323.227997 605.655029 L 542.284973 386.588989 Z" fill="#7EB74A"/><path d=" M 188.694000 257.769989 L 535.947998 605.036011 L 429.243011 711.736023 L 81.989998 364.471985 Z" fill="#7EB74A"/><path d=" M 183.014008 365.980011 L 190.792007 358.201996 L 429.161987 596.562988 L 421.384003 604.341003 Z M 428.842987 622.898010 L 421.065002 615.119019 L 558.315979 477.872009 L 566.093994 485.651001 Z" fill="#FFFFFF"/><circle cx="555.600000" cy="490.200000" r="21.400000" fill="#FFFFFF"/><circle cx="434.600000" cy="609.100000" r="21.400000" fill="#FFFFFF"/><circle cx="179.700000" cy="354.100000" r="21.400000" fill="#FFFFFF"/><path d=" M 207.416000 238.345001 L 426.473999 19.280001 L 533.177979 125.980003 L 314.119995 345.045990 Z" fill="#353323"/><path d=" M 667.684021 473.803009 L 320.429993 126.536003 L 427.134003 19.836000 L 774.390015 367.101990 Z" fill="#353323"/></svg>